<svg width="301" height="128" viewBox="0 0 301 128" fill="none" xmlns="http://www.w3.org/2000/svg">
<path d="M133.843 49.4111C129.059 49.4111 125.87 51.9449 125.87 55.3233C125.87 59.1241 130.122 60.6021 132.78 61.2356L136.395 62.1858C140.115 63.1359 146.494 65.353 146.494 72.0043C146.494 77.811 141.816 82.3508 133.524 82.3508C125.764 82.3508 120.98 78.3389 120.555 72.5322H125.02C125.339 76.5441 129.166 78.4444 133.418 78.4444C138.414 78.4444 142.241 75.9106 142.241 72.0043C142.241 68.4147 138.84 67.1478 135.119 66.0921L130.654 64.8252C125.02 63.2415 121.511 60.391 121.511 55.5345C121.511 49.5167 126.933 45.6104 133.843 45.6104C140.753 45.6104 145.75 49.6222 145.962 55.0066H141.71C141.497 51.5226 138.202 49.4111 133.843 49.4111Z" fill="black"/>
<path d="M152.023 68.5199C152.023 60.1794 156.914 54.6895 164.249 54.6895C171.584 54.6895 176.474 60.1794 176.474 68.5199C176.474 76.8604 171.584 82.3503 164.249 82.3503C156.914 82.3503 152.023 76.8604 152.023 68.5199ZM172.222 68.5199C172.222 63.1355 169.67 58.3846 164.142 58.3846C158.615 58.3846 156.063 63.2411 156.063 68.5199C156.063 73.7987 158.615 78.6552 164.142 78.6552C169.67 78.6552 172.222 73.9043 172.222 68.5199Z" fill="black"/>
<path d="M186.892 81.8224H182.746V46.0322H186.892V81.8224Z" fill="black"/>
<path d="M209.853 62.0797C209.109 60.1793 207.62 58.2789 204.006 58.2789C200.71 58.2789 198.265 59.9681 198.265 62.2908C198.265 64.2968 199.753 65.4581 202.943 66.1971L206.982 67.1473C211.766 68.3086 214.105 70.6313 214.105 74.432C214.105 79.0774 209.853 82.4558 203.581 82.4558C198.053 82.4558 194.332 80.0276 193.375 75.4878L197.308 74.5376C198.053 77.3882 200.179 78.8662 203.581 78.8662C207.408 78.8662 209.853 76.9659 209.853 74.6432C209.853 72.7428 208.577 71.4759 205.813 70.8425L201.348 69.7867C196.352 68.6254 194.225 66.1971 194.225 62.502C194.225 57.9622 198.478 54.7949 204.112 54.7949C209.427 54.7949 212.404 57.3287 213.68 61.1295L209.853 62.0797Z" fill="black"/>
<path d="M231.965 58.4905H226.225V74.1158C226.225 77.5998 228.032 78.1276 229.839 78.1276C230.796 78.1276 231.328 78.0221 231.646 77.9165L232.497 81.6116C231.965 81.8228 230.902 82.1395 229.414 82.1395C225.906 82.1395 222.079 79.9224 222.079 75.2771V58.4905H218.039V55.0065H222.079V48.5664H226.225V55.0065H231.965V58.4905Z" fill="black"/>
<path d="M237.387 47.7215C237.387 46.1379 238.769 44.9766 240.363 44.9766C241.958 44.9766 243.34 46.2435 243.34 47.7215C243.34 49.3052 241.958 50.4665 240.363 50.4665C238.769 50.4665 237.387 49.3052 237.387 47.7215ZM238.237 55.0063H242.383V81.8225H238.237V55.0063Z" fill="black"/>
<path d="M248.762 68.5199C248.762 60.3905 253.652 54.6895 260.881 54.6895C266.515 54.6895 270.874 58.0679 271.512 63.0299H267.366C266.728 60.6017 264.602 58.3846 260.881 58.3846C255.991 58.3846 252.801 62.3965 252.801 68.4143C252.801 74.6433 255.991 78.6552 260.881 78.6552C264.07 78.6552 266.515 76.8604 267.366 74.0098H271.512C270.767 78.7608 266.834 82.3503 260.881 82.3503C253.333 82.3503 248.762 76.5437 248.762 68.5199Z" fill="black"/>
<path d="M276.297 68.6255C276.297 60.3906 281.187 54.6895 288.416 54.6895C294.05 54.6895 300.003 58.0679 300.003 68.0976V69.8924H280.443C280.655 75.5935 283.951 78.7608 288.841 78.7608C292.137 78.7608 294.475 77.3883 295.539 74.5377L299.578 75.6991C298.303 79.7109 294.263 82.4559 288.841 82.4559C281.081 82.3503 276.297 76.8604 276.297 68.6255ZM295.857 66.1972C295.857 61.6575 292.987 58.279 288.522 58.279C283.738 58.279 280.868 61.9742 280.549 66.1972H295.857Z" fill="black"/>
<path d="M39.8665 37.2686C34.9764 37.2686 31.043 41.1749 31.043 46.0314C31.043 50.8878 34.9764 54.7941 39.8665 54.7941C53.0486 54.7941 65.6992 61.9733 70.0578 74.009C69.8452 68.519 68.5695 62.9235 66.2308 57.7503C61.128 46.876 49.1153 37.2686 39.8665 37.2686Z" fill="url(#paint0_linear_24263_88871)"/>
<path d="M67.9302 57.117C71.4383 64.7185 72.714 72.9534 71.5446 80.9772C71.1194 86.256 69.5248 91.5348 66.7608 96.2857C61.1265 106.104 50.2831 110.327 39.865 110.327H39.9713C30.191 110.327 22.3242 118.245 22.3242 127.853C22.3242 127.853 36.5694 127.853 39.865 127.853C65.0599 127.853 85.4709 107.582 85.4709 82.5608C85.4709 60.1787 69.2059 41.5974 48.9011 38.0078C57.0868 41.5974 63.7842 48.2487 67.9302 57.117Z" fill="url(#paint1_linear_24263_88871)"/>
<path opacity="0.15" d="M39.8665 37.2686C34.9764 37.2686 31.043 41.1749 31.043 46.0314C31.043 50.8878 34.9764 54.7941 39.8665 54.7941C53.0486 54.7941 65.6992 61.9733 70.0578 74.009C69.8452 68.519 68.5695 62.9235 66.2308 57.7503C61.128 46.876 49.1153 37.2686 39.8665 37.2686Z" fill="black"/>
<path d="M45.4999 90.4787C50.3901 90.4787 54.3235 86.5724 54.3235 81.7159C54.3235 76.8594 50.3901 72.9531 45.4999 72.9531C32.3178 72.9531 19.6672 65.7739 15.3086 53.7383C15.5212 59.2282 16.7969 64.8237 19.1357 69.997C24.2384 80.8713 36.3575 90.4787 45.4999 90.4787Z" fill="url(#paint2_linear_24263_88871)"/>
<path d="M17.5408 70.7358C14.0326 63.1344 12.7569 54.8994 13.9263 46.8757C14.3515 41.5969 15.9461 36.3181 18.7101 31.5672C24.3444 21.7486 35.1878 17.5256 45.606 17.5256H45.4996C55.2799 17.5256 63.1467 9.6074 63.1467 0C63.1467 0 48.9015 0 45.606 0C20.4111 0 0 20.2706 0 45.292C0 67.6741 16.2651 86.2555 36.5698 89.8451C28.2778 86.1499 21.5804 79.4986 17.5408 70.7358Z" fill="url(#paint3_linear_24263_88871)"/>
<path opacity="0.15" d="M45.4999 90.4787C50.3901 90.4787 54.3235 86.5724 54.3235 81.7159C54.3235 76.8594 50.3901 72.9531 45.4999 72.9531C32.3178 72.9531 19.6672 65.7739 15.3086 53.7383C15.5212 59.2282 16.7969 64.8237 19.1357 69.997C24.2384 80.8713 36.3575 90.4787 45.4999 90.4787Z" fill="black"/>
<path d="M263.59 33.141C264.184 33.141 264.69 33.0713 265.108 32.932C265.533 32.7927 265.878 32.602 266.142 32.36C266.413 32.118 266.611 31.832 266.736 31.502C266.861 31.1647 266.923 30.798 266.923 30.402C266.923 29.6173 266.652 29.0013 266.109 28.554C265.566 28.0993 264.727 27.872 263.59 27.872H260.29V33.141H263.59ZM260.29 21.041V26.211H262.985C264.136 26.211 264.991 25.98 265.548 25.518C266.113 25.0487 266.395 24.418 266.395 23.626C266.395 22.724 266.127 22.0677 265.592 21.657C265.057 21.2463 264.224 21.041 263.095 21.041H260.29ZM263.095 19.204C264.085 19.204 264.932 19.2993 265.636 19.49C266.347 19.6807 266.93 19.9557 267.385 20.315C267.84 20.6743 268.173 21.1107 268.386 21.624C268.606 22.13 268.716 22.7057 268.716 23.351C268.716 23.7323 268.657 24.099 268.54 24.451C268.423 24.803 268.243 25.133 268.001 25.441C267.759 25.7417 267.455 26.013 267.088 26.255C266.721 26.497 266.289 26.6987 265.79 26.86C268.085 27.3147 269.233 28.5137 269.233 30.457C269.233 31.1317 269.108 31.7477 268.859 32.305C268.61 32.855 268.247 33.3317 267.77 33.735C267.293 34.1383 266.707 34.45 266.01 34.67C265.313 34.89 264.521 35 263.634 35H257.947V19.204H263.095ZM279.025 28.169C279.025 27.7437 278.963 27.3513 278.838 26.992C278.721 26.6327 278.545 26.321 278.31 26.057C278.076 25.793 277.79 25.5877 277.452 25.441C277.115 25.2943 276.726 25.221 276.286 25.221C275.384 25.221 274.673 25.4813 274.152 26.002C273.639 26.5227 273.313 27.245 273.173 28.169H279.025ZM280.796 33.405C280.532 33.713 280.228 33.9807 279.883 34.208C279.539 34.428 279.172 34.6077 278.783 34.747C278.395 34.8863 277.991 34.989 277.573 35.055C277.163 35.121 276.756 35.154 276.352 35.154C275.582 35.154 274.867 35.0257 274.207 34.769C273.555 34.505 272.986 34.1237 272.502 33.625C272.026 33.119 271.652 32.4957 271.38 31.755C271.116 31.007 270.984 30.149 270.984 29.181C270.984 28.4037 271.105 27.6813 271.347 27.014C271.589 26.3393 271.934 25.7527 272.381 25.254C272.836 24.7553 273.39 24.363 274.042 24.077C274.695 23.791 275.428 23.648 276.242 23.648C276.924 23.648 277.551 23.7617 278.123 23.989C278.703 24.209 279.201 24.5317 279.619 24.957C280.037 25.3823 280.364 25.9067 280.598 26.53C280.84 27.1533 280.961 27.8647 280.961 28.664C280.961 28.994 280.925 29.2177 280.851 29.335C280.778 29.445 280.642 29.5 280.444 29.5H273.118C273.14 30.1673 273.236 30.7503 273.404 31.249C273.573 31.7403 273.804 32.151 274.097 32.481C274.398 32.811 274.754 33.0567 275.164 33.218C275.575 33.3793 276.033 33.46 276.539 33.46C277.016 33.46 277.427 33.405 277.771 33.295C278.123 33.185 278.424 33.0677 278.673 32.943C278.93 32.811 279.143 32.69 279.311 32.58C279.487 32.47 279.641 32.415 279.773 32.415C279.949 32.415 280.085 32.481 280.18 32.613L280.796 33.405ZM286.679 35.176C285.777 35.176 285.08 34.923 284.589 34.417C284.105 33.911 283.863 33.1887 283.863 32.25V25.562H282.565C282.44 25.562 282.334 25.5253 282.246 25.452C282.165 25.3713 282.125 25.254 282.125 25.1V24.231L283.94 23.978L284.424 20.645C284.453 20.5203 284.508 20.425 284.589 20.359C284.677 20.2857 284.787 20.249 284.919 20.249H286.008V24H289.176V25.562H286.008V32.107C286.008 32.547 286.114 32.877 286.327 33.097C286.547 33.3097 286.825 33.416 287.163 33.416C287.361 33.416 287.529 33.3903 287.669 33.339C287.815 33.2877 287.94 33.2327 288.043 33.174C288.145 33.108 288.233 33.0493 288.307 32.998C288.38 32.9467 288.446 32.921 288.505 32.921C288.578 32.921 288.633 32.9393 288.67 32.976C288.714 33.0053 288.758 33.0567 288.802 33.13L289.44 34.164C289.088 34.4867 288.67 34.736 288.186 34.912C287.702 35.088 287.199 35.176 286.679 35.176ZM297.158 30.039C296.285 30.0683 295.544 30.138 294.936 30.248C294.327 30.3507 293.832 30.49 293.451 30.666C293.069 30.842 292.794 31.051 292.626 31.293C292.457 31.5277 292.373 31.7917 292.373 32.085C292.373 32.3637 292.417 32.6057 292.505 32.811C292.6 33.009 292.725 33.174 292.879 33.306C293.04 33.4307 293.227 33.5223 293.44 33.581C293.652 33.6397 293.883 33.669 294.133 33.669C294.463 33.669 294.763 33.636 295.035 33.57C295.313 33.504 295.574 33.4123 295.816 33.295C296.058 33.1703 296.289 33.02 296.509 32.844C296.729 32.668 296.945 32.4663 297.158 32.239V30.039ZM290.866 25.386C291.489 24.792 292.164 24.3483 292.89 24.055C293.623 23.7617 294.426 23.615 295.299 23.615C295.937 23.615 296.501 23.7213 296.993 23.934C297.484 24.1393 297.898 24.429 298.236 24.803C298.573 25.177 298.826 25.6243 298.995 26.145C299.171 26.6657 299.259 27.2413 299.259 27.872V35H298.302C298.089 35 297.928 34.967 297.818 34.901C297.708 34.8277 297.62 34.6957 297.554 34.505L297.323 33.526C297.037 33.79 296.754 34.0247 296.476 34.23C296.197 34.428 295.904 34.6003 295.596 34.747C295.295 34.8863 294.972 34.9927 294.628 35.066C294.283 35.1393 293.902 35.176 293.484 35.176C293.044 35.176 292.629 35.1173 292.241 35C291.859 34.8753 291.526 34.6883 291.24 34.439C290.954 34.1897 290.726 33.878 290.558 33.504C290.396 33.13 290.316 32.6937 290.316 32.195C290.316 31.755 290.433 31.3333 290.668 30.93C290.91 30.5193 291.298 30.1527 291.834 29.83C292.376 29.5073 293.08 29.2433 293.946 29.038C294.818 28.8327 295.889 28.7153 297.158 28.686V27.872C297.158 27.0287 296.978 26.398 296.619 25.98C296.259 25.562 295.731 25.353 295.035 25.353C294.565 25.353 294.169 25.4117 293.847 25.529C293.531 25.6463 293.256 25.7783 293.022 25.925C292.794 26.0643 292.593 26.1927 292.417 26.31C292.248 26.4273 292.072 26.486 291.889 26.486C291.742 26.486 291.614 26.4457 291.504 26.365C291.401 26.2843 291.317 26.189 291.251 26.079L290.866 25.386Z" fill="#4D9B32"/>
<path d="M210.383 98.2141C211.127 99.0082 211.499 100.085 211.499 101.445V108.617H208.687V102.262C208.687 101.445 208.462 100.805 208.011 100.34C207.56 99.8751 206.948 99.642 206.175 99.642C205.287 99.6716 204.583 99.9932 204.06 100.609C203.537 101.224 203.276 102.004 203.276 102.949V108.617H200.464V102.262C200.464 101.445 200.242 100.805 199.798 100.34C199.354 99.8751 198.746 99.642 197.973 99.642C197.071 99.6716 196.359 99.9932 195.836 100.609C195.314 101.224 195.053 102.004 195.053 102.949V108.617H192.262V97.13H195.053V99.2555C195.811 97.7955 197.157 97.0515 199.089 97.0225C200.091 97.0225 200.932 97.2624 201.612 97.7422C202.292 98.222 202.768 98.898 203.04 99.7707C203.77 97.9674 205.194 97.0509 207.313 97.0225C208.615 97.0225 209.639 97.42 210.383 98.2147V98.2141Z" fill="#333333"/>
<path d="M223.536 98.6116C224.459 99.6567 224.921 101.124 224.921 103.013C224.921 103.386 224.913 103.665 224.899 103.851H216.418C216.604 104.667 216.987 105.308 217.567 105.773C218.147 106.238 218.859 106.47 219.704 106.47C220.29 106.47 220.852 106.36 221.389 106.138C221.926 105.916 222.395 105.597 222.795 105.182L224.298 106.749C223.726 107.379 223.028 107.866 222.205 108.21C221.382 108.553 220.469 108.725 219.467 108.725C218.293 108.725 217.259 108.482 216.365 107.995C215.47 107.508 214.779 106.825 214.293 105.944C213.806 105.064 213.562 104.051 213.562 102.906C213.562 101.761 213.81 100.745 214.303 99.857C214.797 98.9696 215.488 98.2794 216.375 97.7848C217.262 97.2912 218.272 97.0439 219.403 97.0439C221.235 97.0439 222.613 97.5665 223.536 98.6111L223.536 98.6116ZM222.366 101.983C222.337 101.138 222.058 100.466 221.529 99.9646C220.999 99.4637 220.298 99.2127 219.425 99.2127C218.609 99.2127 217.925 99.4595 217.374 99.9535C216.823 100.447 216.483 101.124 216.355 101.983H222.367H222.366Z" fill="#333333"/>
<path d="M231.694 97.6346C232.36 97.2408 233.136 97.0372 234.023 97.0225V99.728C232.835 99.6568 231.887 99.9321 231.178 100.555C230.47 101.178 230.115 102.019 230.115 103.078V108.618H227.324V97.1306H230.115V99.342C230.502 98.598 231.028 98.0291 231.693 97.6352L231.694 97.6346Z" fill="#333333"/>
<path d="M241.056 99.4704C240.462 99.2842 239.915 99.1909 239.414 99.1909C238.941 99.1909 238.566 99.2737 238.286 99.4377C238.007 99.6027 237.868 99.8563 237.868 100.2C237.868 100.543 238.043 100.833 238.394 101.026C238.744 101.22 239.299 101.424 240.057 101.639C240.859 101.882 241.517 102.122 242.033 102.358C242.548 102.594 242.995 102.945 243.375 103.41C243.754 103.875 243.944 104.487 243.944 105.245C243.944 106.362 243.514 107.22 242.655 107.822C241.796 108.423 240.715 108.724 239.413 108.724C238.525 108.724 237.659 108.584 236.815 108.305C235.97 108.026 235.255 107.629 234.668 107.113L235.634 105.159C236.15 105.603 236.765 105.95 237.481 106.201C238.197 106.451 238.877 106.577 239.521 106.577C240.036 106.577 240.448 106.487 240.756 106.308C241.063 106.129 241.217 105.861 241.217 105.503C241.217 105.102 241.038 104.802 240.68 104.601C240.322 104.401 239.743 104.179 238.941 103.935C238.168 103.707 237.538 103.481 237.051 103.259C236.564 103.037 236.142 102.701 235.784 102.25C235.426 101.799 235.247 101.209 235.247 100.479C235.247 99.348 235.659 98.4854 236.482 97.8911C237.305 97.2974 238.339 97 239.585 97C240.344 97 241.091 97.1076 241.829 97.3222C242.566 97.5368 243.22 97.8373 243.793 98.2238L242.783 100.242C242.225 99.9133 241.649 99.6554 241.055 99.4693L241.056 99.4704Z" fill="#333333"/>
<path d="M246.324 97.1299H249.115V108.617H246.324V97.1299Z" fill="#333333"/>
<path d="M250.812 97.1515L253.733 97.1299L256.739 105.869L259.68 97.1299H262.493L258.113 108.617H255.236L250.813 97.151L250.812 97.1515Z" fill="#333333"/>
<path d="M272.614 98.6116C273.538 99.6567 273.999 101.124 273.999 103.013C273.999 103.386 273.992 103.665 273.977 103.851H265.496C265.682 104.667 266.065 105.308 266.645 105.773C267.225 106.238 267.937 106.47 268.782 106.47C269.368 106.47 269.93 106.36 270.467 106.138C271.004 105.916 271.473 105.597 271.873 105.182L273.376 106.749C272.804 107.379 272.106 107.866 271.283 108.21C270.46 108.553 269.547 108.725 268.545 108.725C267.371 108.725 266.337 108.482 265.443 107.995C264.548 107.508 263.857 106.825 263.371 105.944C262.884 105.064 262.641 104.051 262.641 102.906C262.641 101.761 262.888 100.745 263.381 99.857C263.875 98.9696 264.566 98.2794 265.453 97.7848C266.341 97.2912 267.35 97.0439 268.481 97.0439C270.313 97.0439 271.691 97.5665 272.614 98.6111L272.614 98.6116ZM271.444 101.983C271.415 101.138 271.136 100.466 270.607 99.9646C270.077 99.4637 269.376 99.2127 268.503 99.2127C267.687 99.2127 267.003 99.4595 266.452 99.9535C265.901 100.447 265.561 101.124 265.433 101.983H271.445H271.444Z" fill="#333333"/>
<path d="M150.462 107.138C150.658 107.376 150.87 107.544 151.099 107.642C151.332 107.74 151.577 107.789 151.834 107.789C152.1 107.789 152.338 107.742 152.548 107.649C152.763 107.551 152.945 107.402 153.094 107.201C153.243 106.996 153.358 106.737 153.437 106.424C153.516 106.107 153.556 105.729 153.556 105.29C153.556 104.501 153.425 103.932 153.164 103.582C152.903 103.227 152.527 103.05 152.037 103.05C151.706 103.05 151.416 103.127 151.169 103.281C150.922 103.43 150.686 103.643 150.462 103.918V107.138ZM150.462 102.7C150.751 102.397 151.071 102.156 151.421 101.979C151.776 101.797 152.179 101.706 152.632 101.706C153.047 101.706 153.421 101.788 153.752 101.951C154.088 102.114 154.373 102.35 154.606 102.658C154.844 102.961 155.026 103.33 155.152 103.764C155.278 104.198 155.341 104.686 155.341 105.227C155.341 105.81 155.269 106.34 155.124 106.816C154.979 107.292 154.772 107.7 154.501 108.041C154.235 108.377 153.913 108.638 153.535 108.825C153.157 109.012 152.737 109.105 152.275 109.105C152.051 109.105 151.848 109.082 151.666 109.035C151.484 108.993 151.316 108.932 151.162 108.853C151.008 108.774 150.866 108.678 150.735 108.566C150.609 108.449 150.488 108.321 150.371 108.181L150.294 108.664C150.266 108.785 150.217 108.872 150.147 108.923C150.082 108.974 149.991 109 149.874 109H148.733V98.598H150.462V102.7ZM162.995 101.818L159.082 110.974C159.031 111.095 158.963 111.186 158.879 111.247C158.8 111.312 158.676 111.345 158.508 111.345H157.22L158.564 108.461L155.659 101.818H157.178C157.314 101.818 157.419 101.851 157.493 101.916C157.573 101.981 157.631 102.056 157.668 102.14L159.194 105.864C159.246 105.99 159.288 106.116 159.32 106.242C159.358 106.368 159.393 106.496 159.425 106.627C159.467 106.496 159.509 106.368 159.551 106.242C159.593 106.111 159.64 105.983 159.691 105.857L161.133 102.14C161.171 102.047 161.231 101.97 161.315 101.909C161.404 101.848 161.502 101.818 161.609 101.818H162.995Z" fill="#333333"/>
<path d="M177 113C175.65 113 174.341 112.735 173.107 112.214C171.917 111.71 170.847 110.989 169.929 110.071C169.011 109.153 168.29 108.084 167.786 106.893C167.265 105.659 167 104.35 167 103C167 101.65 167.265 100.341 167.786 99.1073C168.29 97.9165 169.011 96.847 169.929 95.929C170.847 95.0109 171.916 94.2901 173.107 93.7863C174.341 93.2645 175.65 93 177 93C178.35 93 179.659 93.2645 180.893 93.7861C182.083 94.2897 183.153 95.0107 184.071 95.9288C184.989 96.847 185.71 97.9163 186.214 99.1071C186.735 100.34 187 101.65 187 103C187 103.216 186.993 103.434 186.979 103.649L185.444 103.55C185.455 103.368 185.461 103.183 185.461 103C185.461 101.857 185.238 100.749 184.797 99.7064C184.371 98.699 183.76 97.7939 182.983 97.0166C182.206 96.2392 181.301 95.629 180.293 95.203C179.251 94.762 178.143 94.5384 177 94.5384C175.857 94.5384 174.749 94.762 173.706 95.203C172.699 95.629 171.794 96.2392 171.017 97.0166C170.239 97.794 169.629 98.699 169.203 99.7064C168.762 100.749 168.538 101.857 168.538 103C168.538 104.143 168.762 105.251 169.203 106.293C169.629 107.301 170.239 108.206 171.017 108.983C171.794 109.76 172.699 110.371 173.706 110.797C174.749 111.238 175.857 111.461 177 111.461C178.538 111.461 180.044 111.044 181.355 110.256C182.629 109.49 183.684 108.397 184.405 107.098L185.75 107.844C184.898 109.379 183.653 110.669 182.148 111.574C180.598 112.507 178.818 113 177 113L177 113Z" fill="#66CC33"/>
<path d="M181.847 100.375C182.271 100.827 182.483 101.442 182.483 102.217V106.305H180.88V102.682C180.88 102.217 180.751 101.852 180.494 101.586C180.237 101.321 179.888 101.188 179.448 101.188C178.942 101.205 178.54 101.388 178.242 101.739C177.944 102.09 177.795 102.535 177.795 103.073V106.305H176.192V102.682C176.192 102.217 176.065 101.852 175.812 101.586C175.559 101.321 175.212 101.188 174.772 101.188C174.258 101.205 173.851 101.388 173.554 101.739C173.256 102.09 173.107 102.535 173.107 103.073V106.305H171.516V99.7563H173.107V100.968C173.539 100.136 174.306 99.7115 175.408 99.6953C175.979 99.6953 176.459 99.8319 176.846 100.105C177.234 100.379 177.505 100.764 177.66 101.262C178.077 100.234 178.888 99.7114 180.096 99.6953C180.839 99.6953 181.422 99.9219 181.847 100.375H181.847Z" fill="#333333"/>
<path d="M185.847 106.305C186.272 106.305 186.617 105.961 186.617 105.536C186.617 105.111 186.272 104.767 185.847 104.767C185.423 104.767 185.078 105.111 185.078 105.536C185.078 105.961 185.423 106.305 185.847 106.305Z" fill="#333333"/>
<defs>
<linearGradient id="paint0_linear_24263_88871" x1="18.2019" y1="139.337" x2="78.5314" y2="-12.0919" gradientUnits="userSpaceOnUse">
<stop stop-color="#489D45"/>
<stop offset="1" stop-color="#70BF44"/>
</linearGradient>
<linearGradient id="paint1_linear_24263_88871" x1="34.4127" y1="145.796" x2="94.7422" y2="-5.63267" gradientUnits="userSpaceOnUse">
<stop stop-color="#489D45"/>
<stop offset="1" stop-color="#70BF44"/>
</linearGradient>
<linearGradient id="paint2_linear_24263_88871" x1="7.89279" y1="135.23" x2="68.2223" y2="-16.1989" gradientUnits="userSpaceOnUse">
<stop stop-color="#489D45"/>
<stop offset="1" stop-color="#70BF44"/>
</linearGradient>
<linearGradient id="paint3_linear_24263_88871" x1="-8.31984" y1="128.771" x2="52.0097" y2="-22.6581" gradientUnits="userSpaceOnUse">
<stop stop-color="#479D46"/>
<stop offset="1" stop-color="#70BF44"/>
</linearGradient>
</defs>
</svg>
